<svg xmlns="http://www.w3.org/2000/svg" xmlns:xlink="http://www.w3.org/1999/xlink" width="750" zoomAndPan="magnify" viewBox="0 0 562.5 187.499995" height="250" preserveAspectRatio="xMidYMid meet" version="1.2"><defs><clipPath id="a992424f3d"><path d="M 20.710938 35 L 154.28125 35 L 154.28125 156.050781 L 20.710938 156.050781 Z M 20.710938 35 "/></clipPath></defs><g id="8ba5da5e97"><g clip-rule="nonzero" clip-path="url(#a992424f3d)"><path style=" stroke:none;fill-rule:evenodd;fill:#594933;fill-opacity:1;" d="M 65.945312 35.933594 C 62.257812 36.519531 59.476562 38.042969 56.644531 41.023438 C 50.433594 47.570312 49.105469 58.554688 53.472656 67.5625 C 55.769531 72.328125 60.398438 76.574219 64.085938 77.300781 C 65.625 77.609375 67.402344 76.328125 68.488281 74.140625 C 69.425781 72.277344 69.523438 71.535156 69.003906 70.058594 C 68.617188 68.925781 67.953125 68.570312 65.285156 68.019531 C 63.601562 67.675781 63.132812 67.402344 61.675781 65.910156 C 59.734375 63.917969 58.910156 61.910156 59.652344 61 C 59.914062 60.710938 60.542969 60.273438 61.09375 60.046875 C 61.835938 59.738281 62.160156 59.316406 62.453125 58.230469 C 63.035156 56.109375 63.972656 54.828125 65.769531 53.726562 C 67.644531 52.558594 68.097656 51.472656 67.824219 48.753906 C 67.726562 47.796875 67.773438 46.953125 67.921875 46.855469 C 68.503906 46.53125 70.21875 47.277344 71.542969 48.410156 C 72.304688 49.058594 73.597656 50.550781 74.441406 51.734375 C 75.296875 52.917969 76.542969 54.390625 77.207031 55.007812 C 78.695312 56.351562 80.539062 60.0625 82.027344 64.695312 C 83 67.726562 83.128906 67.953125 83.484375 67.289062 C 84.585938 65.164062 85.039062 62.3125 85.019531 57.46875 C 85.003906 53.273438 84.890625 52.253906 84.210938 50.015625 C 81.398438 40.78125 73.550781 34.734375 65.945312 35.933594 M 103.351562 36.519531 C 100.292969 37.507812 98.738281 38.496094 96.054688 41.21875 C 93.175781 44.117188 91.621094 46.742188 90.34375 50.824219 C 89.679688 52.949219 89.597656 53.886719 89.617188 58.28125 C 89.632812 62.863281 89.695312 63.53125 90.472656 65.699219 C 91.394531 68.246094 93.0625 71.226562 94.144531 72.261719 L 94.824219 72.894531 L 95.390625 69.574219 C 97.121094 59.363281 99.371094 54.277344 103.433594 51.34375 C 105.40625 49.917969 106.167969 50.046875 107.28125 52.007812 C 108.367188 53.886719 109.175781 57.273438 109.191406 59.933594 C 109.191406 62.734375 108.609375 65.214844 107.089844 68.957031 C 106.3125 70.851562 105.339844 73.542969 104.9375 74.9375 C 104.03125 78.015625 104.144531 78.144531 107.429688 78.015625 C 114.109375 77.722656 121.585938 70.074219 123.265625 61.796875 C 123.976562 58.28125 123.914062 53.46875 123.121094 50.371094 C 120.566406 40.308594 111.425781 33.910156 103.351562 36.519531 M 34.367188 62.542969 C 30.726562 63.238281 26.910156 66.398438 25.128906 70.140625 C 23.253906 74.09375 22.863281 80.234375 24.15625 85.0625 C 25.4375 89.84375 28.574219 94.6875 32.101562 97.34375 C 35.109375 99.613281 37.132812 100.277344 41 100.292969 C 43.832031 100.3125 44.445312 100.199219 46.015625 99.453125 C 51.96875 96.601562 55.027344 90.265625 54.105469 82.664062 C 53.390625 76.816406 51.273438 71.371094 48.457031 68.132812 C 44.898438 64.0625 38.863281 61.667969 34.367188 62.542969 M 133.894531 63.609375 C 131.679688 64.339844 129.625 65.71875 127.425781 67.9375 C 120.660156 74.824219 118.234375 86.554688 122.019531 94.039062 C 123.089844 96.164062 126.050781 99.144531 128.023438 100.101562 C 133.457031 102.707031 139.152344 101.316406 144.378906 96.082031 C 146.5625 93.910156 147.273438 92.921875 148.488281 90.394531 C 150.253906 86.714844 150.964844 84.109375 151.207031 80.347656 C 151.660156 73.347656 148.246094 66.640625 142.988281 64.210938 C 140.707031 63.171875 136.175781 62.863281 133.894531 63.609375 M 83.417969 79.375 C 76.851562 80.285156 71.398438 83.929688 66.15625 90.898438 C 61.902344 96.566406 59.3125 99.46875 56.273438 101.980469 C 54.476562 103.453125 52.679688 104.929688 50.902344 106.402344 C 47.746094 109.027344 45.042969 112.480469 43.265625 116.15625 C 41.550781 119.691406 40.839844 122.492188 40.839844 125.71875 C 40.839844 128.035156 40.855469 128.082031 41.566406 127.871094 C 47.503906 126.042969 53.296875 121.503906 58.519531 114.585938 C 61.757812 110.292969 62.53125 109.027344 65.1875 103.664062 C 70.882812 92.242188 76.558594 88.207031 84.566406 89.890625 C 90.003906 91.027344 93.933594 93.941406 96.234375 98.511719 C 96.976562 100.003906 97.898438 101.347656 98.464844 101.753906 C 100.003906 102.839844 102.945312 104.101562 106.117188 105.027344 L 109.03125 105.867188 L 109.011719 108.167969 C 108.980469 111.230469 107.65625 114.003906 105.082031 116.351562 C 101.734375 119.414062 98.464844 120.46875 93.191406 120.128906 L 89.988281 119.933594 L 88.582031 121.082031 C 87.09375 122.296875 84.777344 125.359375 83.660156 127.566406 C 82.59375 129.703125 81.753906 132.621094 80.183594 139.570312 C 79.375 143.199219 78.289062 147.429688 77.773438 148.953125 C 77.253906 150.476562 76.933594 151.738281 77.0625 151.738281 C 77.191406 151.738281 78.726562 151.367188 80.492188 150.914062 C 84.390625 149.925781 87.691406 149.875 91.621094 150.71875 C 93.175781 151.058594 95.148438 151.433594 95.988281 151.5625 L 97.527344 151.773438 L 97.527344 150.769531 C 97.527344 149.34375 96.703125 147.511719 96.039062 147.511719 C 95.050781 147.511719 93.320312 146.183594 92.496094 144.773438 C 91.929688 143.800781 91.703125 142.925781 91.703125 141.726562 C 91.703125 140.105469 91.765625 139.976562 93.644531 138.128906 C 95.472656 136.3125 98.351562 134.53125 99.453125 134.53125 C 99.839844 134.53125 100.082031 133.722656 100.535156 130.933594 C 101.425781 125.441406 102.527344 123.351562 103.789062 124.730469 C 104.46875 125.492188 105.617188 128.050781 105.617188 128.859375 C 105.632812 129.28125 105.941406 128.957031 106.570312 127.871094 C 107.605469 126.058594 110.308594 123.382812 110.90625 123.59375 C 111.117188 123.660156 111.425781 124.242188 111.585938 124.890625 C 112.085938 126.867188 110.484375 131.695312 108.222656 135.082031 C 107.089844 136.75 107.054688 137.027344 107.898438 139.410156 C 108.238281 140.382812 108.527344 141.808594 108.527344 142.550781 C 108.542969 143.785156 108.640625 143.945312 109.433594 144.140625 C 113.398438 145.03125 114.320312 145.46875 117.492188 147.949219 L 119.773438 149.746094 L 121.519531 148.742188 C 124.011719 147.332031 128.265625 142.941406 129.753906 140.269531 C 133.28125 133.882812 133.832031 125.765625 131.195312 118.507812 C 129.203125 113.0625 126.113281 109.191406 119.304688 103.632812 C 115.210938 100.292969 112.816406 97.765625 109.160156 92.972656 C 104.710938 87.121094 100.40625 83.265625 96.085938 81.304688 C 92.351562 79.601562 87.316406 78.839844 83.417969 79.375 M 80.683594 98.902344 C 80.683594 99.5 80.976562 101.21875 81.332031 102.707031 C 82.238281 106.484375 82.464844 109.660156 81.996094 112.300781 C 81.300781 116.304688 79.8125 118.3125 77.53125 118.3125 C 75.199219 118.3125 73.015625 116.933594 68.941406 112.882812 C 66.449219 110.421875 66.433594 110.40625 66.433594 111.394531 C 66.433594 112.640625 68.4375 115.445312 71.222656 118.070312 C 78.453125 124.921875 84.359375 121.328125 84.390625 110.03125 C 84.40625 105.964844 83.726562 102.578125 82.367188 99.824219 C 81.316406 97.703125 80.683594 97.363281 80.683594 98.902344 M 90.390625 101.445312 C 89.582031 102.253906 89.566406 103.4375 90.34375 104.152344 C 91.589844 105.269531 93.644531 104.425781 93.644531 102.789062 C 93.644531 101.914062 92.558594 100.796875 91.703125 100.796875 C 91.332031 100.796875 90.75 101.089844 90.390625 101.445312 M 98.09375 138.777344 C 97.25 139.28125 97.363281 140.640625 98.304688 141.0625 C 99.515625 141.628906 100.90625 140.820312 101.019531 139.472656 C 101.132812 138.453125 101.101562 138.4375 99.890625 138.4375 C 99.210938 138.4375 98.402344 138.597656 98.09375 138.777344 M 48.539062 168.414062 C 43.78125 169.789062 41.160156 173.128906 41.160156 177.828125 C 41.160156 180.550781 41.648438 182.054688 43.023438 183.5625 C 44.640625 185.378906 46.144531 186.15625 51.355469 187.921875 C 53.910156 188.78125 56.144531 189.738281 56.464844 190.09375 C 57.113281 190.839844 57.210938 192.832031 56.660156 194.046875 C 56.191406 195.082031 53.976562 196.183594 52.390625 196.183594 C 49.867188 196.183594 48.132812 194.839844 47.664062 192.523438 L 47.453125 191.488281 L 40.675781 191.488281 L 40.707031 193.105469 C 40.773438 195.957031 42.910156 199.152344 45.675781 200.558594 C 48.847656 202.164062 53.894531 202.421875 57.40625 201.160156 C 62.597656 199.296875 65.25 193.964844 63.699219 188.585938 C 62.679688 185.101562 60.203125 183.351562 53.117188 181.148438 C 51.0625 180.5 49.121094 179.707031 48.828125 179.367188 C 48.132812 178.605469 48.117188 176.304688 48.796875 175.265625 C 49.816406 173.695312 52.972656 173.304688 54.800781 174.539062 C 55.578125 175.054688 56.046875 175.738281 56.433594 176.886719 L 56.96875 178.507812 L 60.234375 178.589844 L 63.503906 178.6875 L 63.503906 177.601562 C 63.503906 173.839844 60.398438 169.691406 56.742188 168.574219 C 54.898438 168.007812 50.269531 167.910156 48.539062 168.414062 M 76.800781 168.460938 C 73.46875 169.386719 70.769531 171.621094 69.183594 174.78125 C 66.625 179.820312 66.691406 190.351562 69.296875 195.421875 C 71.011719 198.777344 74.277344 201.0625 78.339844 201.757812 C 85.34375 202.957031 92.398438 198.097656 93.046875 191.632812 L 93.160156 190.496094 L 89.695312 190.417969 L 86.25 190.320312 L 85.699219 191.941406 C 84.519531 195.503906 80.507812 196.898438 77.417969 194.792969 C 75.183594 193.269531 74.375 190.058594 74.617188 183.691406 C 74.714844 181.375 74.972656 178.898438 75.183594 178.183594 C 75.765625 176.238281 77.59375 174.585938 79.457031 174.3125 C 82.59375 173.839844 84.828125 175.265625 85.621094 178.214844 L 85.992188 179.640625 L 89.324219 179.640625 C 93.140625 179.640625 93.011719 179.789062 92.171875 176.5625 C 91.234375 172.980469 88.128906 169.546875 84.957031 168.574219 C 82.949219 167.976562 78.777344 167.910156 76.800781 168.460938 M 106.199219 168.300781 C 101.539062 169.402344 98.433594 172.789062 96.992188 178.34375 C 96.328125 180.90625 96.25 188.261719 96.863281 191.144531 C 97.851562 195.84375 100.746094 199.570312 104.582031 201.09375 C 107.105469 202.097656 112.121094 202.132812 114.5625 201.160156 C 119.511719 199.199219 121.957031 195.632812 122.828125 189.152344 C 123.25 185.894531 123.039062 180.628906 122.359375 178.167969 C 120.9375 172.949219 117.863281 169.628906 113.316406 168.414062 C 111.441406 167.910156 108.074219 167.863281 106.199219 168.300781 M 183.757812 168.445312 C 180.457031 169.367188 177.691406 171.574219 176.316406 174.34375 C 175.039062 176.9375 174.792969 178.605469 174.792969 184.988281 C 174.792969 190.480469 174.875 191.40625 175.523438 193.480469 C 177.238281 198.972656 181.347656 201.839844 187.429688 201.824219 C 194.03125 201.792969 198.285156 198.617188 199.257812 192.992188 C 199.449219 191.808594 199.578125 189.089844 199.515625 186.964844 L 199.417969 183.109375 L 194.546875 183.15625 L 189.289062 183.207031 C 189 183.207031 188.886719 183.96875 188.886719 185.960938 L 188.886719 188.714844 L 192.769531 188.714844 L 192.769531 190.578125 C 192.769531 194.207031 191.101562 195.859375 187.429688 195.859375 C 182.917969 195.859375 181.445312 193.1875 181.445312 185.054688 C 181.425781 177.90625 182.542969 174.976562 185.570312 174.132812 C 187.332031 173.648438 188.546875 173.726562 190.117188 174.441406 C 191.167969 174.925781 191.652344 175.398438 192.121094 176.464844 C 192.476562 177.226562 192.753906 178.101562 192.769531 178.425781 C 192.769531 178.929688 193.140625 178.992188 195.988281 178.992188 C 197.769531 178.992188 199.289062 178.863281 199.371094 178.71875 C 199.691406 178.199219 198.722656 174.539062 197.863281 173.078125 C 196.78125 171.230469 195.390625 170.035156 193.125 168.996094 C 190.890625 167.960938 186.394531 167.699219 183.757812 168.445312 M 19.320312 171.929688 C 16.585938 180.761719 10.699219 200.558594 10.699219 200.949219 C 10.699219 201.273438 11.523438 201.371094 14.222656 201.371094 L 17.75 201.371094 L 19.5625 194.890625 L 29.789062 194.890625 L 30.144531 196.265625 C 30.339844 197.027344 30.742188 198.453125 31.050781 199.425781 L 31.601562 201.207031 L 35.160156 201.207031 C 37.34375 201.207031 38.71875 201.078125 38.6875 200.882812 C 38.671875 200.707031 36.503906 193.300781 33.863281 184.421875 L 29.058594 168.285156 L 20.453125 168.285156 Z M 150.058594 184.46875 C 147.355469 193.382812 145.15625 200.835938 145.15625 201.03125 C 145.15625 201.257812 146.320312 201.371094 148.539062 201.371094 L 151.933594 201.371094 L 152.371094 199.832031 C 152.695312 198.761719 152.984375 197.675781 153.261719 196.589844 L 153.699219 194.890625 L 157.597656 194.855469 C 162.597656 194.808594 163.730469 194.871094 163.957031 195.246094 C 164.050781 195.40625 164.488281 196.867188 164.894531 198.46875 L 165.652344 201.402344 L 169.082031 201.304688 C 172.320312 201.222656 172.511719 201.175781 172.417969 200.558594 C 172.367188 200.203125 171.007812 195.457031 169.390625 190.011719 C 167.789062 184.566406 166.105469 178.878906 165.671875 177.355469 C 165.105469 175.378906 164.503906 173.417969 163.90625 171.441406 L 162.9375 168.285156 L 154.976562 168.285156 Z M -25.054688 182.785156 C -25.1875 190.59375 -25.300781 197.933594 -25.347656 199.101562 L -25.414062 201.207031 L -18.777344 201.402344 L -18.777344 196.574219 C -18.777344 193.917969 -18.683594 189.558594 -18.570312 186.882812 L -18.359375 182.039062 L -14.832031 189.121094 L -11.304688 196.21875 L -9.621094 196.121094 L -7.921875 196.023438 L -4.332031 188.925781 L -0.742188 181.8125 L -0.53125 186.285156 C -0.402344 188.75 -0.304688 192.265625 -0.304688 194.078125 C -0.304688 195.894531 -0.222656 198.277344 -0.109375 199.378906 L 0.101562 201.371094 L 6.492188 201.371094 L 6.492188 200.15625 C 6.492188 198.179688 5.859375 177.566406 5.648438 172.886719 L 5.457031 168.589844 L 1.847656 168.671875 L -1.757812 168.769531 L -5.335938 176.726562 C -6.628906 179.625 -7.941406 182.542969 -9.234375 185.441406 C -9.542969 186.125 -9.996094 185.265625 -13.503906 177.488281 L -17.453125 168.769531 L -21.15625 168.671875 L -24.863281 168.589844 Z M 124.414062 171.6875 L 124.414062 174.765625 L 132.503906 174.765625 L 132.585938 187.988281 L 132.683594 201.207031 L 139.316406 201.402344 L 139.316406 174.765625 L 147.746094 174.765625 L 147.746094 168.609375 L 124.414062 168.609375 Z M 106.585938 174.730469 C 104.886719 175.640625 104.078125 177.535156 103.609375 181.667969 C 103.320312 184.292969 103.320312 185.945312 103.59375 188.425781 C 104.207031 193.996094 105.714844 195.859375 109.597656 195.859375 C 112.214844 195.859375 113.914062 194.953125 114.722656 193.121094 C 116.421875 189.265625 116.359375 180.191406 114.609375 176.757812 C 113.65625 174.878906 112.234375 174.117188 109.675781 174.117188 C 108.382812 174.117188 107.332031 174.328125 106.585938 174.730469 M 24.628906 176.710938 C 24.609375 176.804688 23.835938 179.578125 22.894531 182.882812 L 21.214844 188.878906 L 24.578125 188.976562 C 26.4375 189.023438 28.007812 189.023438 28.058594 188.976562 C 28.105469 188.925781 27.363281 186.105469 26.40625 182.71875 C 25.453125 179.335938 24.660156 176.628906 24.628906 176.710938 M 158.648438 177.261719 C 157.679688 180.566406 155.511719 188.472656 155.511719 188.730469 C 155.511719 188.910156 156.902344 189.039062 158.941406 189.039062 C 162.046875 189.039062 162.351562 188.992188 162.191406 188.472656 C 162.109375 188.164062 161.351562 185.425781 160.523438 182.394531 C 159.683594 179.367188 158.972656 176.824219 158.90625 176.773438 C 158.859375 176.710938 158.730469 176.9375 158.648438 177.261719 "/></g><g style="fill:#b89154;fill-opacity:1;"><g transform="translate(291.870106, 115.189888)"><path style="stroke:none" d="M 5.234375 -44.140625 L 15.453125 -44.140625 L 15.453125 0 L 5.234375 0 Z M 5.234375 -44.140625 "/></g></g><g style="fill:#b89154;fill-opacity:1;"><g transform="translate(312.548144, 115.189888)"><path style="stroke:none" d="M 52.953125 4.734375 C 51.523438 6.492188 49.789062 7.835938 47.75 8.765625 C 45.71875 9.691406 43.484375 10.15625 41.046875 10.15625 C 37.765625 10.15625 34.800781 9.445312 32.15625 8.03125 C 29.507812 6.625 26.484375 4.132812 23.078125 0.5625 C 19.078125 0.0625 15.507812 -1.21875 12.375 -3.28125 C 9.25 -5.34375 6.8125 -8 5.0625 -11.25 C 3.320312 -14.507812 2.453125 -18.113281 2.453125 -22.0625 C 2.453125 -26.394531 3.492188 -30.296875 5.578125 -33.765625 C 7.660156 -37.234375 10.539062 -39.953125 14.21875 -41.921875 C 17.894531 -43.898438 22.023438 -44.890625 26.609375 -44.890625 C 31.191406 -44.890625 35.3125 -43.898438 38.96875 -41.921875 C 42.625 -39.953125 45.5 -37.234375 47.59375 -33.765625 C 49.695312 -30.296875 50.75 -26.394531 50.75 -22.0625 C 50.75 -16.9375 49.304688 -12.441406 46.421875 -8.578125 C 43.546875 -4.710938 39.734375 -2.019531 34.984375 -0.5 C 36.035156 0.59375 37.054688 1.378906 38.046875 1.859375 C 39.035156 2.335938 40.097656 2.578125 41.234375 2.578125 C 43.960938 2.578125 46.359375 1.488281 48.421875 -0.6875 Z M 12.796875 -22.0625 C 12.796875 -19.332031 13.394531 -16.894531 14.59375 -14.75 C 15.789062 -12.601562 17.441406 -10.929688 19.546875 -9.734375 C 21.648438 -8.535156 24.003906 -7.9375 26.609375 -7.9375 C 29.210938 -7.9375 31.5625 -8.535156 33.65625 -9.734375 C 35.757812 -10.929688 37.410156 -12.601562 38.609375 -14.75 C 39.804688 -16.894531 40.40625 -19.332031 40.40625 -22.0625 C 40.40625 -24.800781 39.804688 -27.238281 38.609375 -29.375 C 37.410156 -31.519531 35.757812 -33.191406 33.65625 -34.390625 C 31.5625 -35.585938 29.210938 -36.1875 26.609375 -36.1875 C 24.003906 -36.1875 21.648438 -35.585938 19.546875 -34.390625 C 17.441406 -33.191406 15.789062 -31.519531 14.59375 -29.375 C 13.394531 -27.238281 12.796875 -24.800781 12.796875 -22.0625 Z M 12.796875 -22.0625 "/></g></g><g style="fill:#b89154;fill-opacity:1;"><g transform="translate(365.75625, 115.189888)"><path style="stroke:none" d="M 24.84375 0.75 C 18.539062 0.75 13.632812 -0.988281 10.125 -4.46875 C 6.613281 -7.957031 4.859375 -12.941406 4.859375 -19.421875 L 4.859375 -44.140625 L 15.0625 -44.140625 L 15.0625 -19.796875 C 15.0625 -11.890625 18.34375 -7.9375 24.90625 -7.9375 C 28.09375 -7.9375 30.523438 -8.894531 32.203125 -10.8125 C 33.890625 -12.726562 34.734375 -15.722656 34.734375 -19.796875 L 34.734375 -44.140625 L 44.828125 -44.140625 L 44.828125 -19.421875 C 44.828125 -12.941406 43.070312 -7.957031 39.5625 -4.46875 C 36.050781 -0.988281 31.144531 0.75 24.84375 0.75 Z M 24.84375 0.75 "/></g></g><g style="fill:#b89154;fill-opacity:1;"><g transform="translate(415.433964, 115.189888)"><path style="stroke:none" d="M 39.40625 -8.203125 L 39.40625 0 L 5.234375 0 L 5.234375 -44.140625 L 38.578125 -44.140625 L 38.578125 -35.9375 L 15.390625 -35.9375 L 15.390625 -26.359375 L 35.875 -26.359375 L 35.875 -18.40625 L 15.390625 -18.40625 L 15.390625 -8.203125 Z M 39.40625 -8.203125 "/></g></g><g style="fill:#b89154;fill-opacity:1;"><g transform="translate(457.735673, 115.189888)"><path style="stroke:none" d="M 14.375 -35.8125 L 0.25 -35.8125 L 0.25 -44.140625 L 38.703125 -44.140625 L 38.703125 -35.8125 L 24.59375 -35.8125 L 24.59375 0 L 14.375 0 Z M 14.375 -35.8125 "/></g></g><g style="fill:#b89154;fill-opacity:1;"><g transform="translate(494.489387, 115.189888)"><path style="stroke:none" d="M 34.296875 -9.453125 L 13.8125 -9.453125 L 9.890625 0 L -0.5625 0 L 19.109375 -44.140625 L 29.1875 -44.140625 L 48.921875 0 L 38.203125 0 Z M 31.078125 -17.21875 L 24.078125 -34.109375 L 17.078125 -17.21875 Z M 31.078125 -17.21875 "/></g></g><g style="fill:#594933;fill-opacity:1;"><g transform="translate(161.836284, 115.189888)"><path style="stroke:none" d="M 24.34375 -44.140625 C 28.25 -44.140625 31.640625 -43.484375 34.515625 -42.171875 C 37.398438 -40.867188 39.617188 -39.019531 41.171875 -36.625 C 42.722656 -34.226562 43.5 -31.394531 43.5 -28.125 C 43.5 -24.882812 42.722656 -22.054688 41.171875 -19.640625 C 39.617188 -17.222656 37.398438 -15.375 34.515625 -14.09375 C 31.640625 -12.8125 28.25 -12.171875 24.34375 -12.171875 L 15.453125 -12.171875 L 15.453125 0 L 5.234375 0 L 5.234375 -44.140625 Z M 23.765625 -20.484375 C 26.835938 -20.484375 29.171875 -21.144531 30.765625 -22.46875 C 32.359375 -23.800781 33.15625 -25.6875 33.15625 -28.125 C 33.15625 -30.601562 32.359375 -32.503906 30.765625 -33.828125 C 29.171875 -35.148438 26.835938 -35.8125 23.765625 -35.8125 L 15.453125 -35.8125 L 15.453125 -20.484375 Z M 23.765625 -20.484375 "/></g></g><g style="fill:#594933;fill-opacity:1;"><g transform="translate(207.353116, 115.189888)"><path style="stroke:none" d="M 39.40625 -8.203125 L 39.40625 0 L 5.234375 0 L 5.234375 -44.140625 L 38.578125 -44.140625 L 38.578125 -35.9375 L 15.390625 -35.9375 L 15.390625 -26.359375 L 35.875 -26.359375 L 35.875 -18.40625 L 15.390625 -18.40625 L 15.390625 -8.203125 Z M 39.40625 -8.203125 "/></g></g><g style="fill:#594933;fill-opacity:1;"><g transform="translate(249.654825, 115.189888)"><path style="stroke:none" d="M 14.375 -35.8125 L 0.25 -35.8125 L 0.25 -44.140625 L 38.703125 -44.140625 L 38.703125 -35.8125 L 24.59375 -35.8125 L 24.59375 0 L 14.375 0 Z M 14.375 -35.8125 "/></g></g></g></svg>